# xmcd CD database file
#
# Track frame offsets:
#	150
#	68838
#	116440
#
# Disc length: 2772 seconds
#
# Revision: 0
# Processed by: cddbd v1.5.2PL0 Copyright (c) Steve Scherf et al.
# Submitted via: CDex 1.70beta3
#
DISCID=200ad203
DTITLE=Jimmy Smith - Confirmation
DYEAR=1958
DGENRE=Jazz
TTITLE0=What Is This Thing Called Love
TTITLE1=Confirmation
TTITLE2=Cherokee
EXTD=YEAR: 1958
EXTT0=
EXTT1=
EXTT2=
PLAYORDER=
